<?xml version="1.0" standalone="no"?>
<!DOCTYPE svg PUBLIC "-//W3C//DTD SVG 20010904//EN"
 "http://www.w3.org/TR/2001/REC-SVG-20010904/DTD/svg10.dtd">
<svg version="1.0" xmlns="http://www.w3.org/2000/svg"
 width="705.000000pt" height="344.000000pt" viewBox="0 0 705.000000 344.000000"
 preserveAspectRatio="xMidYMid meet">
<metadata>
Created by potrace 1.14, written by Peter Selinger 2001-2017
</metadata>
<g transform="translate(0.000000,344.000000) scale(0.100000,-0.100000)"
fill="#000000" stroke="none">
<path d="M2410 2604 c-103 -27 -272 -126 -395 -230 -26 -23 -23 -22 25 6 134
77 229 110 335 117 166 11 270 -37 605 -277 190 -136 299 -180 449 -180 154 0
238 35 496 205 250 164 373 222 559 260 98 20 306 20 396 1 36 -8 66 -13 68
-11 8 8 -159 54 -237 66 -108 15 -290 6 -397 -20 -116 -29 -237 -83 -444 -201
-267 -152 -365 -180 -499 -146 -86 22 -140 53 -289 166 -224 170 -302 216
-415 246 -67 18 -187 17 -257 -2z"/>
<path d="M4731 2269 c-46 -5 -120 -18 -165 -30 -192 -49 -314 -114 -589 -313
-273 -197 -363 -245 -490 -266 -87 -14 -165 1 -262 50 -80 40 -119 69 -361
273 -71 60 -165 131 -209 158 -217 134 -427 136 -647 8 -88 -52 -243 -176
-333 -269 l-70 -72 75 56 c167 123 310 186 444 194 188 11 330 -60 677 -339
180 -145 277 -206 391 -246 61 -22 91 -26 188 -27 205 -2 301 47 635 323 282
233 407 310 607 376 254 83 479 86 713 11 11 -3 -2 5 -30 19 -149 76 -387 114
-574 94z"/>
<path d="M4760 1365 c0 -9 7 -18 15 -21 12 -5 15 -30 15 -140 0 -110 -3 -136
-15 -140 -8 -4 -15 -12 -15 -20 0 -10 15 -14 55 -14 43 0 55 3 55 15 0 9 -7
18 -15 21 -12 5 -15 32 -15 160 l0 154 -40 0 c-29 0 -40 -4 -40 -15z"/>
<path d="M5860 1360 c0 -11 7 -20 15 -20 11 0 15 -11 15 -39 l0 -39 -45 6
c-31 3 -52 0 -69 -11 -51 -34 -61 -155 -15 -203 27 -28 82 -33 117 -8 20 14
22 14 22 0 0 -12 10 -16 35 -16 37 0 50 25 20 36 -12 5 -15 32 -15 160 l0 154
-40 0 c-33 0 -40 -3 -40 -20z m11 -130 c16 -9 19 -22 19 -73 0 -72 -10 -87
-57 -87 -40 0 -53 21 -53 84 0 36 5 48 26 65 30 24 38 25 65 11z"/>
<path d="M1043 1348 c-54 -61 -143 -189 -143 -207 0 -18 7 -20 78 -23 l77 -3
3 -42 c3 -35 7 -43 23 -43 16 0 19 7 19 45 0 41 2 45 25 45 16 0 25 6 25 15 0
9 -9 15 -25 15 l-25 0 0 110 c0 100 -2 110 -18 110 -10 0 -28 -10 -39 -22z"/>
<path d="M1194 1336 c-19 -19 -34 -41 -34 -50 0 -26 35 -18 58 14 23 31 50 37
83 20 14 -8 19 -21 19 -51 0 -36 -7 -47 -85 -128 -47 -48 -85 -93 -85 -100 0
-7 35 -11 115 -11 l115 0 0 40 c0 44 -21 55 -40 20 -9 -16 -21 -20 -61 -20
l-51 0 54 61 c73 83 88 108 88 151 0 49 -44 88 -102 88 -32 0 -47 -7 -74 -34z"/>
<path d="M1415 1345 c-30 -30 -32 -64 -4 -99 47 -59 149 -15 135 59 -13 63
-86 86 -131 40z"/>
<path d="M1760 1359 c-63 -25 -100 -85 -100 -161 0 -64 24 -114 70 -145 44
-31 131 -32 178 -3 59 36 25 58 -45 29 -47 -19 -101 -3 -130 40 -27 40 -31
107 -8 150 20 39 76 64 125 56 32 -5 39 -11 44 -36 9 -48 36 -37 36 16 0 42
-1 44 -37 54 -47 13 -100 13 -133 0z"/>
<path d="M3775 1360 c-8 -14 3 -30 21 -30 11 0 14 -23 14 -128 0 -116 -2 -128
-20 -140 -43 -27 -22 -34 90 -30 101 3 111 5 135 28 13 14 27 40 31 57 6 28 2
37 -26 63 -25 24 -29 31 -17 36 27 10 38 61 23 99 -11 26 -23 36 -53 44 -48
14 -190 14 -198 1z"/>
<path d="M1978 1241 c-31 -27 -33 -34 -33 -91 0 -57 2 -64 33 -91 91 -81 220
10 183 130 -24 83 -119 110 -183 52z m125 -33 c26 -31 22 -93 -8 -123 -29 -30
-45 -31 -79 -4 -22 17 -26 28 -26 69 0 41 4 52 27 69 30 24 58 20 86 -11z"/>
<path d="M2180 1255 c0 -9 7 -18 15 -21 12 -5 15 -24 15 -84 0 -60 -3 -79 -15
-84 -8 -3 -15 -12 -15 -21 0 -12 12 -15 55 -15 40 0 55 4 55 14 0 8 -7 16 -15
20 -11 4 -15 22 -15 74 0 79 11 95 62 90 l33 -3 3 -97 3 -98 44 0 c35 0 43 -3
39 -15 -3 -8 6 -25 20 -40 20 -20 35 -25 76 -25 81 0 120 28 120 85 0 30 -20
41 -92 49 -40 5 -58 12 -58 22 0 10 12 14 40 14 51 0 90 35 90 78 0 17 6 32
15 36 34 13 10 24 -66 31 -75 7 -82 6 -105 -16 -28 -26 -33 -79 -9 -99 13 -11
13 -15 0 -33 -10 -14 -11 -26 -5 -37 7 -13 5 -21 -5 -30 -11 -9 -18 -7 -34 9
-17 17 -21 34 -21 90 0 86 -22 121 -76 121 -20 0 -45 -5 -57 -11 -16 -9 -22
-9 -25 0 -6 18 -72 14 -72 -4z"/>
<path d="M2680 1255 c0 -9 7 -18 15 -21 12 -5 15 -24 15 -85 0 -62 -3 -81 -15
-85 -8 -4 -15 -12 -15 -20 0 -10 15 -14 55 -14 40 0 55 4 55 14 0 8 -7 16 -15
20 -11 4 -15 21 -15 66 0 70 23 103 68 98 22 -2 28 2 30 20 3 19 -1 22 -31 22
-19 0 -40 -7 -47 -15 -7 -8 -16 -15 -21 -15 -5 0 -9 7 -9 15 0 10 -11 15 -35
15 -25 0 -35 -4 -35 -15z"/>
<path d="M2897 1249 c-37 -29 -54 -88 -38 -138 16 -55 52 -81 111 -81 53 0 96
25 82 48 -7 10 -16 9 -45 -3 -42 -17 -79 -8 -96 24 -25 45 -16 51 69 51 79 0
80 0 80 26 0 29 -16 64 -39 81 -26 20 -95 16 -124 -8z"/>
<path d="M3101 1251 c-24 -24 -27 -73 -6 -91 8 -7 32 -18 52 -25 46 -16 62
-37 44 -59 -22 -26 -70 -20 -81 9 -14 36 -30 31 -30 -9 0 -39 11 -46 76 -46
56 0 84 25 84 76 0 33 -3 37 -54 59 -64 28 -76 43 -51 62 27 19 56 16 62 -7 9
-35 35 -24 31 13 -3 31 -4 32 -55 35 -42 2 -56 -1 -72 -17z"/>
<path d="M3279 1249 c-14 -14 -19 -30 -17 -52 3 -28 10 -35 61 -60 59 -29 71
-49 38 -67 -34 -17 -61 -12 -71 15 -15 38 -32 31 -28 -12 l3 -38 55 -3 c66 -3
100 20 100 68 0 36 -16 52 -74 74 -49 19 -58 39 -26 56 25 13 60 4 60 -16 0
-8 7 -14 15 -14 21 0 20 56 -1 64 -35 13 -94 6 -115 -15z"/>
<path d="M3491 1256 c-33 -18 -50 -53 -51 -104 0 -81 40 -122 119 -122 50 0
88 30 101 81 14 51 -2 111 -37 138 -30 24 -95 28 -132 7z m109 -42 c9 -9 15
-33 15 -65 0 -42 -4 -54 -24 -70 -28 -23 -68 -19 -88 8 -7 9 -13 38 -13 63 0
47 13 73 40 83 20 7 51 -2 70 -19z"/>
<path d="M4060 1255 c0 -9 7 -18 15 -21 12 -5 15 -24 15 -84 0 -60 -3 -79 -15
-84 -8 -3 -15 -12 -15 -21 0 -12 12 -15 55 -15 41 0 55 4 55 14 0 8 -9 18 -20
21 -17 5 -20 15 -20 61 0 46 4 59 26 80 18 19 32 24 48 20 18 -4 25 -1 29 14
3 10 2 21 -1 24 -11 12 -58 6 -80 -10 -20 -14 -22 -14 -22 0 0 12 -10 16 -35
16 -25 0 -35 -4 -35 -15z"/>
<path d="M4268 1254 c-17 -9 -25 -20 -22 -29 7 -18 4 -18 48 0 27 12 42 13 56
5 22 -12 28 -60 8 -60 -30 0 -91 -23 -109 -41 -24 -24 -24 -61 -1 -82 23 -21
81 -22 109 -2 19 13 22 13 27 0 8 -21 66 -20 66 0 0 9 -7 18 -15 21 -11 5 -15
23 -15 79 0 94 -21 125 -83 125 -23 -1 -54 -7 -69 -16z"/>
<path d="M4490 1252 c-27 -22 -30 -65 -6 -91 9 -10 34 -23 55 -30 45 -13 57
-33 34 -56 -22 -22 -66 -15 -78 13 -13 29 -29 23 -33 -13 -4 -35 10 -45 71
-45 117 0 130 120 16 145 -36 8 -48 31 -26 52 19 19 67 10 67 -12 0 -8 7 -15
15 -15 21 0 20 56 -1 64 -32 12 -92 6 -114 -12z"/>
<path d="M4640 1255 c0 -9 7 -18 15 -21 12 -5 15 -24 15 -84 0 -60 -3 -79 -15
-84 -8 -3 -15 -12 -15 -21 0 -12 12 -15 55 -15 43 0 55 3 55 15 0 9 -7 18 -15
21 -12 5 -15 26 -15 105 l0 99 -40 0 c-29 0 -40 -4 -40 -15z"/>
<path d="M4931 1256 c-33 -18 -50 -53 -51 -104 0 -79 40 -122 116 -122 48 0
99 27 85 44 -9 11 -18 11 -48 1 -55 -19 -96 1 -105 50 -3 18 3 20 81 23 l83 3
-5 37 c-12 70 -90 104 -156 68z"/>
<path d="M5100 1255 c0 -9 7 -18 15 -21 12 -5 15 -24 15 -84 0 -60 -3 -79 -15
-84 -8 -3 -15 -12 -15 -21 0 -12 12 -15 55 -15 43 0 55 3 55 15 0 9 -7 18 -15
21 -12 5 -15 26 -15 105 l0 99 -40 0 c-29 0 -40 -4 -40 -15z"/>
<path d="M5220 1254 c0 -9 9 -18 20 -21 18 -5 20 -14 20 -83 0 -70 -2 -79 -20
-85 -11 -3 -20 -13 -20 -21 0 -11 15 -14 60 -14 62 0 75 11 40 32 -16 10 -20
24 -20 69 0 46 4 59 24 78 14 14 33 21 47 19 19 -2 25 2 27 20 3 19 -1 22 -31
22 -19 0 -40 -7 -48 -16 -11 -14 -13 -14 -21 0 -12 22 -78 22 -78 0z"/>
<path d="M5451 1256 c-33 -18 -50 -53 -51 -104 0 -81 40 -122 119 -122 50 0
88 30 101 81 14 51 -2 111 -37 138 -30 24 -95 28 -132 7z m107 -40 c18 -18 25
-76 13 -109 -24 -61 -102 -57 -120 8 -24 89 47 157 107 101z"/>
<path d="M6031 1256 c-71 -39 -67 -182 6 -215 54 -25 169 2 144 33 -9 11 -18
11 -48 1 -55 -19 -96 1 -105 50 -3 18 3 20 81 23 l83 3 -5 37 c-12 70 -90 104
-156 68z"/>
<path d="M1450 875 c0 -8 7 -15 15 -15 13 0 15 -22 15 -140 0 -118 -2 -140
-15 -140 -8 0 -15 -7 -15 -15 0 -12 13 -15 55 -15 40 0 55 4 55 14 0 8 -7 16
-15 20 -12 4 -15 31 -15 156 l0 150 -40 0 c-29 0 -40 -4 -40 -15z"/>
<path d="M2920 875 c0 -8 7 -15 15 -15 11 0 15 -11 15 -39 l0 -40 -35 6 c-74
12 -125 -40 -125 -127 0 -46 21 -94 45 -104 26 -10 74 -7 98 5 16 9 22 9 25 0
6 -17 72 -14 72 3 0 8 -7 16 -15 20 -12 4 -15 31 -15 156 l0 150 -40 0 c-29 0
-40 -4 -40 -15z m14 -131 c12 -5 16 -21 16 -70 0 -57 -2 -65 -26 -81 -24 -15
-29 -15 -53 -2 -22 13 -26 22 -29 68 -4 75 31 108 92 85z"/>
<path d="M3466 880 c-47 -14 -93 -67 -106 -120 -37 -153 103 -265 243 -194 27
15 36 38 17 49 -5 3 -23 -1 -39 -10 -55 -28 -138 -11 -156 32 -31 76 -23 137
23 180 22 20 34 23 81 21 50 -3 56 -6 61 -28 3 -14 14 -26 23 -28 14 -3 17 4
17 41 0 44 0 45 -44 56 -51 13 -79 13 -120 1z"/>
<path d="M6270 875 c0 -8 7 -15 15 -15 13 0 15 -22 15 -140 0 -118 -2 -140
-15 -140 -8 0 -15 -7 -15 -15 0 -12 13 -15 55 -15 40 0 55 4 55 14 0 8 -7 16
-15 20 -12 4 -15 31 -15 156 l0 150 -40 0 c-29 0 -40 -4 -40 -15z"/>
<path d="M381 858 c-64 -166 -106 -265 -117 -274 -27 -22 -15 -34 36 -34 54 0
56 1 38 29 -9 15 -9 25 0 45 11 24 16 26 77 26 63 0 65 -1 81 -32 11 -22 13
-33 5 -36 -6 -2 -11 -10 -11 -18 0 -10 14 -14 50 -14 50 0 64 11 35 27 -8 5
-41 74 -73 153 -53 133 -60 145 -85 148 -21 3 -29 -2 -36 -20z"/>
<path d="M5030 866 c0 -7 8 -16 18 -18 11 -3 36 -52 76 -152 55 -138 60 -147
83 -144 22 3 32 20 85 151 37 88 66 147 74 147 8 0 14 7 14 15 0 12 -13 15
-55 15 -42 0 -55 -3 -55 -15 0 -8 5 -15 10 -15 17 0 12 -21 -31 -129 l-42
-103 -44 108 c-48 121 -49 124 -28 124 8 0 15 7 15 15 0 12 -13 15 -60 15 -44
0 -60 -4 -60 -14z"/>
<path d="M600 770 c0 -11 7 -20 15 -20 12 0 15 -16 15 -80 0 -62 -3 -82 -15
-86 -8 -4 -15 -12 -15 -20 0 -10 15 -14 55 -14 42 0 55 3 55 15 0 8 -7 15 -15
15 -13 0 -15 13 -13 77 3 75 4 78 31 87 51 18 62 1 65 -103 l3 -91 39 0 c40 0
57 21 26 33 -10 4 -15 29 -18 87 -3 72 -6 84 -27 101 -28 23 -62 24 -101 4
-25 -13 -29 -13 -34 0 -3 9 -18 15 -36 15 -23 0 -30 -4 -30 -20z"/>
<path d="M906 769 c-25 -19 -27 -26 -22 -63 3 -23 6 -50 6 -61 0 -11 -1 -32
-1 -47 0 -14 -6 -32 -14 -38 -21 -18 -18 -43 8 -67 64 -60 197 -23 197 54 0
31 -37 53 -91 53 -29 0 -51 6 -59 15 -7 8 -11 15 -9 16 2 0 24 2 48 4 52 4 82
30 86 74 1 18 10 38 20 45 24 17 13 22 -70 31 -63 6 -73 4 -99 -16z"/>
<path d="M1263 770 c-65 -39 -65 -155 -2 -203 30 -21 95 -25 128 -7 30 16 51
63 51 116 0 39 -5 51 -34 80 -40 40 -92 46 -143 14z m109 -37 c26 -23 25 -106
-2 -133 -25 -25 -51 -25 -81 -1 -19 16 -24 29 -24 69 0 27 6 56 14 65 17 22
69 22 93 0z"/>
<path d="M1635 781 c-57 -25 -83 -117 -51 -179 23 -44 52 -57 123 -53 34 2 82
48 89 88 8 43 -9 103 -36 128 -22 20 -95 29 -125 16z m99 -53 c23 -32 20 -90
-5 -122 -42 -54 -109 -20 -109 57 0 58 22 87 65 87 24 0 39 -7 49 -22z"/>
<path d="M1836 767 c-30 -30 -34 -72 -10 -99 14 -14 14 -20 4 -33 -7 -8 -10
-25 -6 -39 4 -16 1 -26 -9 -30 -9 -3 -15 -18 -15 -35 0 -41 39 -66 101 -66 64
0 103 29 107 79 3 31 0 37 -23 46 -14 6 -43 10 -63 10 -70 0 -85 33 -16 36 44
1 84 37 84 76 0 16 7 31 15 34 26 10 17 34 -12 34 -16 0 -51 3 -80 6 -46 6
-54 4 -77 -19z"/>
<path d="M2188 774 c-16 -8 -28 -19 -28 -25 0 -15 30 -23 43 -10 17 17 74 14
81 -5 15 -40 7 -54 -31 -54 -54 0 -103 -32 -103 -67 0 -36 9 -49 43 -62 21 -8
37 -7 65 5 24 9 38 11 40 4 6 -17 72 -13 72 5 0 8 -7 15 -15 15 -12 0 -15 14
-15 70 0 74 -17 123 -45 134 -28 10 -79 6 -107 -10z"/>
<path d="M2534 780 c-71 -29 -82 -151 -19 -210 31 -29 101 -32 140 -6 37 24
19 43 -26 27 -17 -6 -38 -11 -46 -11 -21 0 -63 46 -63 70 0 18 6 20 80 20 l80
0 0 31 c0 43 -47 89 -92 88 -18 0 -43 -4 -54 -9z"/>
<path d="M3074 756 c-29 -29 -34 -41 -34 -82 0 -66 27 -110 77 -123 45 -12
111 2 120 25 9 24 -4 28 -46 14 -21 -7 -48 -9 -60 -5 -23 7 -55 60 -46 75 3 6
42 10 86 10 73 0 79 2 79 20 0 34 -29 80 -56 90 -49 19 -84 12 -120 -24z"/>
<path d="M3765 780 c-8 -14 3 -30 21 -30 11 0 14 -17 14 -80 0 -69 -3 -81 -20
-90 -36 -19 -21 -30 40 -30 44 0 60 4 60 14 0 7 -9 16 -20 19 -17 4 -20 14
-20 60 0 68 22 101 68 99 18 0 32 4 32 9 0 6 8 6 20 -1 17 -9 20 -21 20 -83 0
-108 38 -145 115 -113 20 9 37 11 40 5 10 -16 75 -11 75 6 0 8 -7 15 -15 15
-11 0 -15 20 -17 103 l-3 102 -37 3 c-33 3 -38 0 -38 -17 0 -12 7 -21 15 -21
12 0 15 -14 15 -69 0 -61 -3 -72 -22 -85 -59 -41 -88 -4 -88 111 l0 83 -70 0
c-56 0 -74 -4 -89 -19 -19 -19 -19 -19 -24 0 -4 13 -14 19 -35 19 -17 0 -34
-4 -37 -10z"/>
<path d="M4220 775 c0 -9 7 -18 15 -21 12 -5 15 -25 15 -90 0 -68 -3 -84 -15
-84 -8 0 -15 -7 -15 -15 0 -12 13 -15 55 -15 40 0 55 4 55 14 0 8 -7 16 -15
20 -11 4 -15 21 -15 64 0 68 18 92 68 92 27 0 32 4 32 25 0 21 -5 25 -28 25
-15 0 -37 -7 -49 -15 -19 -13 -22 -13 -27 0 -8 21 -76 21 -76 0z"/>
<path d="M4435 765 c-29 -28 -32 -61 -9 -93 12 -18 13 -26 4 -37 -7 -8 -10
-26 -6 -39 4 -15 0 -28 -9 -36 -22 -19 -18 -57 8 -74 59 -38 148 -25 182 28
32 49 -3 86 -83 86 -20 0 -43 4 -51 9 -18 11 -4 34 17 26 22 -8 81 14 92 35 6
10 10 30 10 45 0 14 7 28 15 31 35 14 13 31 -46 38 -92 9 -98 8 -124 -19z"/>
<path d="M4787 774 c-33 -18 -31 -40 4 -36 13 2 40 4 59 5 33 2 35 0 38 -30 3
-30 1 -33 -26 -33 -91 0 -145 -67 -92 -115 24 -22 82 -24 107 -3 13 10 17 10
20 1 6 -18 73 -17 73 1 0 8 -7 16 -15 20 -12 4 -15 23 -15 81 0 67 -3 79 -25
100 -28 29 -84 33 -128 9z"/>
<path d="M5430 777 c-14 -7 -26 -21 -28 -31 -3 -16 0 -18 19 -11 61 19 87 18
99 -5 16 -31 5 -50 -29 -50 -71 0 -124 -49 -103 -96 17 -36 54 -47 102 -30 22
8 43 10 46 5 9 -15 64 -11 64 5 0 8 -7 16 -15 20 -12 4 -15 23 -15 85 0 74 -2
81 -26 100 -30 24 -77 27 -114 8z"/>
<path d="M5646 769 c-31 -24 -35 -68 -8 -91 9 -9 34 -21 55 -28 43 -13 56 -33
37 -55 -19 -23 -71 -19 -77 5 -9 34 -35 24 -31 -12 3 -28 8 -33 38 -40 68 -14
120 18 120 75 0 29 -19 47 -74 67 -29 11 -41 21 -41 35 0 16 8 21 38 23 32 3
37 0 37 -17 0 -12 7 -21 15 -21 21 0 21 66 -1 74 -32 12 -82 5 -108 -15z"/>
<path d="M5834 756 c-29 -29 -34 -41 -34 -82 0 -96 64 -149 146 -122 24 8 40
20 42 32 4 20 4 19 -75 0 -35 -10 -63 27 -63 84 0 58 20 82 68 82 25 0 32 -4
32 -20 0 -11 7 -20 15 -20 10 0 15 10 15 34 0 37 -15 46 -78 46 -25 0 -43 -9
-68 -34z"/>
<path d="M5994 778 c-4 -7 2 -18 14 -26 19 -13 22 -24 22 -86 0 -108 38 -144
117 -111 24 10 39 12 41 5 6 -17 72 -13 72 5 0 8 -7 15 -15 15 -11 0 -15 20
-17 103 l-3 102 -37 3 c-33 3 -38 0 -38 -17 0 -12 7 -21 15 -21 12 0 15 -14
15 -69 0 -61 -3 -72 -22 -85 -59 -41 -88 -4 -88 111 l0 83 -34 0 c-19 0 -38
-5 -42 -12z"/>
<path d="M6427 774 c-33 -18 -31 -40 4 -36 13 2 40 4 59 5 33 2 35 0 38 -30 3
-32 2 -33 -33 -33 -71 0 -114 -41 -101 -95 10 -40 85 -53 125 -21 11 8 15 8
18 -1 7 -19 73 -17 73 2 0 8 -6 15 -14 15 -11 0 -15 21 -17 86 -4 76 -7 88
-28 105 -28 23 -85 24 -124 3z"/>
<path d="M6620 770 c0 -11 7 -20 15 -20 12 0 15 -16 15 -85 0 -69 -3 -85 -15
-85 -8 0 -15 -7 -15 -15 0 -12 13 -15 55 -15 42 0 55 3 55 15 0 8 -7 15 -15
15 -12 0 -15 14 -15 63 0 72 14 93 65 99 22 2 30 8 30 23 0 26 -38 32 -70 11
-30 -20 -35 -20 -35 -1 0 10 -11 15 -35 15 -28 0 -35 -4 -35 -20z"/>
<path d="M410 340 c0 -6 7 -13 15 -16 12 -5 15 -28 15 -115 0 -88 -3 -111 -15
-115 -30 -12 -14 -24 30 -24 44 0 60 12 30 24 -10 4 -15 20 -15 50 l0 45 52 3
c74 4 77 28 4 28 l-56 0 0 50 0 50 56 0 c47 0 57 -3 61 -20 9 -32 23 -23 23
15 l0 35 -100 0 c-62 0 -100 -4 -100 -10z"/>
<path d="M1600 341 c0 -6 5 -13 10 -16 6 -4 10 -53 10 -115 0 -62 -4 -111 -10
-115 -28 -17 -1 -25 85 -25 l95 0 0 30 c0 31 -16 41 -26 15 -4 -11 -21 -15
-55 -15 l-49 0 0 109 c0 63 4 112 10 116 22 13 8 25 -30 25 -22 0 -40 -4 -40
-9z"/>
<path d="M2500 341 c0 -6 5 -13 10 -16 6 -4 10 -53 10 -115 0 -62 -4 -111 -10
-115 -23 -14 -7 -25 35 -25 44 0 60 12 30 24 -11 4 -15 20 -15 56 l0 50 75 0
75 0 0 -50 c0 -36 -4 -52 -15 -56 -26 -10 -5 -24 36 -24 37 0 51 12 29 25 -6
4 -10 54 -10 116 0 88 3 111 15 115 26 10 5 24 -36 24 -37 0 -51 -12 -29 -25
6 -3 10 -28 10 -56 l0 -49 -75 0 -75 0 0 50 c0 36 4 52 15 56 30 12 14 24 -30
24 -25 0 -45 -4 -45 -9z"/>
<path d="M3970 342 c0 -5 7 -12 15 -16 12 -4 15 -27 15 -116 0 -89 -3 -112
-15 -116 -58 -23 91 -35 154 -13 56 20 71 86 26 115 l-26 17 21 19 c26 24 26
70 -1 94 -16 15 -40 20 -105 23 -51 2 -84 -1 -84 -7z"/>
<path d="M5580 340 c0 -6 6 -13 14 -16 8 -3 36 -60 63 -126 26 -66 54 -123 61
-126 18 -7 24 3 73 128 23 58 50 112 60 121 24 21 15 29 -33 29 -39 0 -46 -8
-27 -27 9 -9 2 -36 -26 -107 -21 -53 -40 -94 -42 -93 -1 2 -21 47 -42 100 -31
76 -36 97 -25 101 30 11 12 26 -31 26 -25 0 -45 -5 -45 -10z"/>
<path d="M652 260 c-35 -15 -57 -75 -43 -122 14 -44 44 -68 87 -68 70 0 110
72 80 143 -21 51 -69 69 -124 47z"/>
<path d="M882 252 c-16 -16 -22 -18 -26 -6 -3 8 -18 14 -33 14 -25 -1 -26 -2
-10 -14 23 -18 25 -143 2 -152 -30 -12 -14 -24 30 -24 44 0 60 12 30 24 -11 4
-15 21 -15 59 0 60 17 84 60 87 60 5 60 5 60 -68 0 -54 4 -72 18 -85 23 -21
61 -22 90 -1 20 14 22 14 22 0 0 -10 9 -16 25 -16 14 0 25 5 25 10 0 6 -4 10
-10 10 -6 0 -10 35 -10 85 l0 85 -30 0 c-16 0 -30 -4 -30 -10 0 -5 7 -10 15
-10 13 0 15 -11 13 -62 -3 -56 -6 -64 -30 -78 -47 -26 -62 -6 -66 84 -3 72 -4
76 -26 76 -13 0 -37 3 -54 6 -22 5 -35 1 -50 -14z"/>
<path d="M1253 253 c-14 -9 -23 -11 -23 -4 0 6 -11 11 -25 11 -14 0 -25 -4
-25 -10 0 -5 7 -10 15 -10 12 0 15 -14 15 -70 0 -54 -4 -72 -15 -76 -28 -11
-15 -24 25 -24 38 0 52 12 30 25 -5 3 -10 35 -10 70 0 61 2 65 25 71 48 12 55
1 55 -86 l0 -80 30 0 c32 0 40 14 15 24 -11 4 -15 20 -15 56 0 62 13 90 43 90
38 0 47 -19 47 -97 l0 -73 30 0 c32 0 40 14 15 24 -11 4 -15 22 -15 71 0 80
-22 111 -74 101 -17 -3 -36 -13 -42 -21 -9 -12 -13 -11 -27 6 -20 23 -44 24
-74 2z"/>
<path d="M2209 241 c-41 -42 -41 -101 1 -143 27 -27 36 -30 73 -25 54 7 77 35
77 92 0 57 -7 73 -41 90 -43 23 -77 18 -110 -14z m109 -19 c19 -25 15 -89 -8
-112 -32 -32 -66 -25 -89 17 -18 35 -13 72 14 99 27 27 59 26 83 -4z"/>
<path d="M3030 260 c0 -6 7 -13 15 -16 12 -5 15 -27 15 -110 0 -86 -3 -104
-15 -104 -8 0 -15 -4 -15 -10 0 -5 21 -10 48 -10 41 1 45 2 30 14 -10 7 -18
25 -18 40 0 23 2 25 19 16 76 -40 146 52 108 143 -19 45 -57 58 -99 34 -25
-14 -30 -15 -34 -2 -7 17 -54 21 -54 5z"/>
<path d="M3273 258 c-50 -24 -17 -34 40 -12 18 6 47 -21 47 -45 0 -14 -10 -20
-41 -24 -47 -6 -79 -31 -79 -62 0 -44 54 -60 97 -30 19 13 22 13 27 0 3 -8 15
-15 26 -15 21 0 26 10 11 26 -5 5 -11 40 -13 78 -3 52 -9 72 -23 82 -22 16
-61 17 -92 2z"/>
<path d="M3510 253 c-17 -12 -25 -13 -28 -5 -4 14 -52 16 -52 2 0 -5 7 -10 15
-10 12 0 15 -14 15 -70 0 -54 -4 -72 -15 -76 -28 -11 -15 -24 25 -24 38 0 52
12 30 25 -14 9 -12 119 2 133 7 7 25 12 40 12 36 0 48 -28 48 -111 0 -56 1
-59 25 -59 26 0 32 9 16 26 -5 5 -11 37 -13 71 -6 94 -49 127 -108 86z"/>
<path d="M3702 260 c-13 -5 -30 -26 -38 -47 -42 -100 63 -188 143 -119 24 21
28 32 28 75 0 38 -5 56 -21 71 -24 24 -79 34 -112 20z m79 -29 c44 -36 21
-141 -30 -141 -9 0 -27 7 -39 16 -20 14 -23 23 -20 67 3 43 7 54 28 64 32 16
34 16 61 -6z"/>
<path d="M4383 258 c-50 -24 -17 -34 40 -12 18 6 47 -21 47 -45 0 -14 -10 -20
-41 -24 -47 -6 -79 -31 -79 -62 0 -44 54 -60 97 -30 19 13 22 13 27 0 3 -8 15
-15 26 -15 21 0 26 10 11 26 -5 5 -11 40 -13 78 -3 52 -9 72 -23 82 -22 16
-61 17 -92 2z"/>
<path d="M4909 241 c-23 -23 -29 -38 -29 -71 0 -77 87 -129 146 -86 27 20 13
28 -25 15 -28 -10 -37 -9 -59 8 -15 11 -28 30 -30 42 -3 20 1 21 67 21 78 0
84 6 56 59 -25 49 -83 54 -126 12z"/>
<path d="M5355 258 c-34 -18 -45 -40 -45 -89 0 -61 22 -89 77 -96 37 -5 46 -2
73 25 78 79 -9 213 -105 160z m80 -33 c46 -45 21 -134 -37 -135 -65 0 -80 131
-18 153 26 9 30 8 55 -18z"/>
<path d="M5913 260 c-13 -5 -23 -15 -23 -21 0 -11 16 -9 52 6 10 4 24 -1 37
-14 28 -28 27 -51 -3 -51 -38 0 -86 -21 -97 -42 -8 -15 -6 -25 6 -44 18 -28
59 -32 92 -9 19 13 22 13 27 0 3 -8 15 -15 26 -15 23 0 27 15 5 24 -11 4 -15
22 -15 75 0 61 -3 72 -22 85 -25 18 -52 19 -85 6z"/>
<path d="M6743 260 c-23 -10 -32 -30 -12 -30 6 0 19 5 30 10 13 7 25 7 38 1
22 -12 35 -51 18 -55 -7 -2 -31 -9 -54 -15 -54 -15 -71 -42 -48 -77 18 -28 59
-32 93 -8 20 14 22 14 22 0 0 -10 9 -16 25 -16 27 0 34 15 10 24 -11 4 -15 22
-15 75 0 61 -3 72 -22 85 -25 18 -52 19 -85 6z"/>
<path d="M6380 250 c0 -5 5 -10 10 -10 6 0 10 -19 10 -43 0 -52 15 -108 32
-119 21 -13 62 -9 86 8 20 14 22 14 22 0 0 -10 9 -16 25 -16 27 0 34 15 10 24
-12 4 -15 24 -15 86 0 79 0 80 -25 80 -14 0 -25 -4 -25 -10 0 -5 5 -10 10 -10
7 0 10 -25 8 -67 -3 -63 -5 -68 -30 -77 -45 -16 -58 5 -58 90 l0 74 -30 0
c-16 0 -30 -4 -30 -10z"/>
</g>
</svg>
